HIERARCHY
ROOT root
{
	OFFSET 0.000000 0.000000 0.000000
	CHANNELS 6 Xposition Yposition Zposition Zrotation Yrotation Xrotation
	JOINT lhip
	{
		OFFSET 0.058581 -0.082280 -0.017664
		CHANNELS 3 Zrotation Yrotation Xrotation
		JOINT lknee
		{
			OFFSET 0.043451 -0.386469 0.008037
			CHANNELS 3 Zrotation Yrotation Xrotation
			JOINT lankle
			{
				OFFSET -0.014790 -0.426874 -0.037428
				CHANNELS 3 Zrotation Yrotation Xrotation
				JOINT ltoe
				{
					OFFSET 0.041054 -0.060286 0.122042
					CHANNELS 3 Zrotation Yrotation Xrotation
					End Site
					{
						OFFSET 0.000000 0.000000 0.000000
					}
				}
			}
		}
	}
	JOINT rhip
	{
		OFFSET -0.060310 -0.090513 -0.013543
		CHANNELS 3 Zrotation Yrotation Xrotation
		JOINT rknee
		{
			OFFSET -0.043257 -0.383688 -0.004843
			CHANNELS 3 Zrotation Yrotation Xrotation
			JOINT rankle
			{
				OFFSET 0.019056 -0.420046 -0.034562
				CHANNELS 3 Zrotation Yrotation Xrotation
				JOINT rtoe
				{
					OFFSET -0.034840 -0.062106 0.130323
					CHANNELS 3 Zrotation Yrotation Xrotation
					End Site
					{
						OFFSET 0.000000 0.000000 0.000000
					}
				}
			}
		}
	}
	JOINT lowerback
	{
		OFFSET 0.004439 0.124404 -0.038385
		CHANNELS 3 Zrotation Yrotation Xrotation
		JOINT upperback
		{
			OFFSET 0.004488 0.137956 0.026820
			CHANNELS 3 Zrotation Yrotation Xrotation
			JOINT chest
			{
				OFFSET -0.002265 0.056032 0.002855
				CHANNELS 3 Zrotation Yrotation Xrotation
				JOINT lowerneck
				{
					OFFSET -0.013390 0.211636 -0.033468
					CHANNELS 3 Zrotation Yrotation Xrotation
					JOINT upperneck
					{
						OFFSET 0.010113 0.088937 0.050410
						CHANNELS 3 Zrotation Yrotation Xrotation
						End Site
						{
							OFFSET 0.000000 0.000000 0.000000
						}
					}
				}
				JOINT lclavicle
				{
					OFFSET 0.071702 0.114000 -0.018898
					CHANNELS 3 Zrotation Yrotation Xrotation
					JOINT lshoulder
					{
						OFFSET 0.122921 0.045205 -0.019046
						CHANNELS 3 Zrotation Yrotation Xrotation
						JOINT lelbow
						{
							OFFSET 0.255332 -0.015649 -0.022946
							CHANNELS 3 Zrotation Yrotation Xrotation
							JOINT lwrist
							{
								OFFSET 0.265709 0.012698 -0.007375
								CHANNELS 3 Zrotation Yrotation Xrotation
								End Site
								{
									OFFSET 0.000000 0.000000 0.000000
								}
							}
						}
					}
				}
				JOINT rclavicle
				{
					OFFSET -0.082954 0.112472 -0.023707
					CHANNELS 3 Zrotation Yrotation Xrotation
					JOINT rshoulder
					{
						OFFSET -0.113228 0.046853 -0.008472
						CHANNELS 3 Zrotation Yrotation Xrotation
						JOINT relbow
						{
							OFFSET -0.260127 -0.014369 -0.031269
							CHANNELS 3 Zrotation Yrotation Xrotation
							JOINT rwrist
							{
								OFFSET -0.269108 0.006794 -0.006027
								CHANNELS 3 Zrotation Yrotation Xrotation
								End Site
								{
									OFFSET 0.000000 0.000000 0.000000
								}
							}
						}
					}
				}
			}
		}
	}
}
MOTION
Frames: 16
Frame Time: 0.033333
1.073539 0.755091 0.982638 -88.369983 4.292530 88.210830 3.226202 -0.687759 2.397379 -2.905942 -12.282886 3.457736 5.819807 9.198991 -18.040891 0.000000 -0.000000 0.000000 1.708303 -1.728723 -2.109976 3.937937 2.930942 9.168120 2.848576 -3.486826 -12.097045 0.000000 -0.000000 0.000000 -1.116892 1.944398 7.299564 1.909927 -2.172800 3.387770 1.671045 -1.597627 3.875957 4.287816 3.145314 -7.312132 2.974756 -2.858592 -0.908313 -26.490120 -0.293726 2.066565 -62.171251 -7.346166 10.243459 9.709060 -22.504716 6.634902 -2.576452 -3.127758 -6.661686 24.937052 1.532998 0.670335 60.963857 3.961038 12.287854 -13.357249 20.288539 -2.466678 6.249331 0.483522 -7.661530 
1.072897 0.755159 0.982616 -88.160391 4.263140 88.076651 3.216905 -0.602612 2.498808 -2.914856 -12.341136 3.613470 5.760643 9.004091 -18.167922 0.000000 -0.000000 0.000000 1.807208 -1.662460 -1.867196 3.721432 2.881606 9.148627 2.745185 -3.674215 -12.281142 0.000000 -0.000000 0.000000 -1.239559 1.862945 7.427131 1.914931 -2.242321 3.273047 1.782419 -1.587958 3.823122 4.208826 3.261484 -7.361029 2.842339 -2.609130 -0.600586 -26.341174 -0.379182 1.967938 -61.972504 -7.596636 10.324660 9.476953 -24.022690 7.127673 -2.315545 -3.240835 -6.322858 24.752774 1.571929 0.615252 60.984511 3.960218 12.199217 -13.265268 20.813274 -2.287876 6.317917 0.541914 -7.486800 
1.072304 0.755181 0.982648 -88.140930 4.248030 88.058817 3.226108 -0.628437 2.573622 -2.913866 -12.370736 3.524941 5.751780 9.006647 -18.313099 0.000000 -0.000000 0.000000 1.900107 -1.466053 -1.925716 3.630625 3.026685 9.358582 2.727078 -3.912567 -12.503488 0.000000 -0.000000 0.000000 -1.283654 1.919027 7.428917 1.955499 -2.195746 3.149572 1.793904 -1.603722 3.751262 4.173201 3.366783 -7.325471 2.761233 -2.569325 -0.236168 -26.073250 -0.537226 1.990623 -61.856555 -7.803966 10.541067 9.362822 -24.988009 7.517704 -1.925491 -3.554825 -6.168510 24.573436 1.535004 0.584306 60.989969 3.930386 12.190794 -13.171233 20.883369 -2.131446 6.146940 0.682389 -7.498867 
1.071783 0.755145 0.982679 -87.638958 4.182399 88.220803 3.165789 -0.812654 2.374851 -2.926051 -12.603581 3.576959 5.655942 8.959044 -18.293567 0.000000 -0.000000 0.000000 1.977710 -1.184324 -1.773763 3.447912 2.941389 8.932560 2.697922 -4.614032 -12.497106 0.000000 -0.000000 0.000000 -1.346268 1.759186 7.377694 1.967396 -2.370332 3.099727 1.858135 -1.651800 3.712686 4.231041 3.293027 -8.072236 2.643754 -2.662045 -0.084910 -25.664748 -0.775298 1.981255 -61.425759 -7.973808 10.610050 9.001709 -25.746886 7.940939 -2.072671 -3.614424 -6.242045 24.179120 1.524818 0.592507 61.123471 3.691437 12.245379 -13.190714 21.094636 -1.777178 6.347932 0.680619 -7.427946 
1.071466 0.755396 0.982807 -87.534559 4.146467 88.238466 3.162804 -0.822815 2.346311 -2.917649 -12.653178 3.604815 5.625672 8.869658 -18.331191 0.000000 -0.000000 0.000000 2.020138 -1.103858 -1.649010 3.379836 3.077122 8.738489 2.606357 -4.938514 -12.505399 0.000000 -0.000000 0.000000 -1.398345 1.775426 7.429201 2.000209 -2.445778 3.130337 1.894214 -1.693952 3.641028 4.549755 2.887655 -8.692548 2.727467 -2.970055 -0.374126 -25.495060 -0.961413 2.169961 -60.952789 -7.996836 10.447496 8.817294 -25.753837 8.121661 -2.434190 -3.931651 -6.316570 23.890619 1.651663 0.601671 61.159336 3.686902 12.008045 -12.901474 20.483510 -1.539225 6.408320 0.922241 -7.135730 
1.070704 0.755836 0.982815 -87.387324 4.149110 88.334192 3.240157 -0.715408 2.334984 -2.990491 -12.777317 3.516186 5.584259 8.902520 -18.244428 0.000000 -0.000000 0.000000 2.091323 -1.232348 -1.479258 3.400950 3.484973 8.349891 2.536074 -5.362045 -12.466712 0.000000 -0.000000 0.000000 -1.462510 1.822754 7.478786 2.016698 -2.569312 3.207482 1.960946 -1.736687 3.648206 4.083003 3.078165 -8.315080 2.569096 -2.494713 -0.072252 -24.929446 -1.124895 2.453950 -60.233281 -7.680869 10.342295 8.086414 -25.994047 8.895676 -1.945737 -3.865898 -6.339087 23.566171 1.426758 1.086349 60.375848 2.647015 12.101127 -11.979642 22.085926 -0.425487 6.313156 0.867023 -7.317367 
1.069764 0.756658 0.982830 -87.441650 4.078922 88.764280 3.223635 -0.655654 1.938824 -2.961777 -12.954102 3.503382 5.489126 8.995525 -18.294510 0.000000 -0.000000 0.000000 2.181844 -1.080297 -1.849939 3.339184 3.880078 8.264737 2.508134 -5.892956 -12.576170 0.000000 -0.000000 0.000000 -1.623863 1.800767 7.908998 1.924492 -2.522482 2.151118 2.037536 -1.675803 3.670888 4.050179 2.774096 -8.245055 2.754400 -2.638371 0.017672 -24.227696 -0.516078 2.816429 -59.359011 -6.862390 10.260981 7.044865 -26.163513 10.370111 -1.711705 -4.060231 -6.132340 23.260011 0.865784 1.478479 59.855418 1.560233 12.205815 -11.179600 22.401111 1.114820 6.210060 0.773606 -6.965958 
1.068579 0.757922 0.983064 -86.870173 4.177798 88.735115 3.513716 -0.649042 1.861458 -3.114210 -13.331324 3.713900 5.364390 8.902984 -18.444403 0.000000 -0.000000 0.000000 2.469064 -1.233111 -1.248680 3.251944 4.179270 7.492058 2.379030 -6.675483 -12.442116 0.000000 -0.000000 0.000000 -1.612021 1.685758 8.303260 1.994890 -2.698920 2.140226 2.086911 -1.856411 3.764423 4.120386 2.606930 -8.717613 2.619670 -2.625690 0.000982 -23.895610 -0.151663 3.229244 -57.910571 -6.159712 9.922288 5.956859 -26.132561 11.260691 -1.765954 -4.323340 -6.065930 23.004841 0.537255 1.638008 58.993661 0.748574 12.031162 -10.188877 21.663109 1.994885 6.321378 1.045974 -6.603102 
1.067892 0.759060 0.983038 -86.774682 4.206882 88.970293 3.630978 -0.616832 1.421918 -3.153317 -13.489335 4.116040 5.156656 8.942347 -18.587945 0.000000 -0.000000 0.000000 2.720064 -1.057431 -1.245572 3.138283 4.638660 7.111856 2.296237 -7.374905 -12.415882 0.000000 -0.000000 0.000000 -1.767348 1.719589 8.607883 2.060328 -2.706297 2.060586 2.242872 -1.793770 3.906705 4.195411 2.121401 -9.492893 2.635062 -2.889406 -0.559554 -23.314285 0.510621 3.559690 -56.614162 -5.129829 9.628500 4.774672 -26.435582 12.484994 -1.613850 -4.423666 -6.076706 22.504156 0.126047 1.993683 58.162619 -0.573956 11.870482 -9.485039 21.883591 2.792087 6.120952 1.067278 -6.631968 
1.067280 0.760455 0.983107 -86.709773 4.174286 89.321805 3.637107 -0.736864 0.817846 -3.127349 -13.750111 4.560091 4.908357 9.298818 -18.747821 0.000000 -0.000000 0.000000 2.911513 -1.000646 -1.515564 3.075561 5.218599 6.996171 2.301742 -8.198203 -12.439252 0.000000 -0.000000 0.000000 -2.000478 1.890953 8.944274 2.143155 -2.596585 2.036182 2.325954 -1.658280 4.409644 4.187770 2.200296 -9.771605 2.430145 -2.869748 -0.191957 -22.520017 1.577888 3.945906 -54.780501 -3.751774 9.540557 3.246480 -27.240255 14.178746 -1.405666 -4.314684 -5.895131 22.077004 -0.635744 2.297204 56.826472 -2.330677 11.837064 -8.779109 22.195374 3.435567 5.846577 1.174739 -6.549906 
1.066215 0.762025 0.983372 -86.246305 4.203998 89.365986 3.715661 -0.770392 0.295052 -3.176865 -14.183685 5.443480 4.710952 9.404099 -19.094884 0.000000 -0.000000 0.000000 3.275866 -1.097137 -1.257083 2.832560 5.610699 6.650517 2.385866 -8.890216 -12.364790 0.000000 -0.000000 0.000000 -2.049110 1.858240 9.688920 2.084710 -2.594444 2.059077 2.347269 -1.526854 4.640103 4.236227 1.785371 -10.086008 2.379065 -3.035016 -0.621177 -21.617084 2.702780 4.411282 -53.372728 -2.530365 9.315894 1.799059 -28.332727 15.811466 -1.218852 -4.726585 -5.851128 21.740186 -1.609001 2.432990 55.847159 -3.898623 11.391866 -8.266309 22.609901 3.643021 5.708348 1.722129 -6.925650 
1.067027 0.763809 0.983374 -85.982191 4.159623 89.749079 3.695604 -1.064186 -1.034039 -3.316902 -14.410348 6.883055 4.717672 9.828776 -19.394057 0.000000 -0.000000 0.000000 3.604968 -0.938264 -1.920123 2.685743 5.972119 7.040043 2.232237 -9.805862 -12.576602 0.000000 -0.000000 0.000000 -2.167731 2.012459 10.260892 2.118288 -2.523197 2.079204 2.358056 -1.598123 5.155645 4.562152 1.293889 -10.993585 2.252847 -3.267807 -1.421104 -20.776777 4.044734 4.631722 -51.864663 -1.265360 9.145127 -0.012635 -30.217349 17.723432 -1.082818 -4.640962 -5.939312 21.091048 -2.828403 2.325716 54.993457 -5.163049 11.199357 -7.234453 23.415257 4.815570 5.624623 1.418801 -6.540751 
1.069876 0.766335 0.983257 -85.758297 3.984478 90.789801 3.435412 -1.669149 -3.562862 -3.387485 -14.230660 9.163090 4.672755 10.419689 -19.901043 0.000000 -0.000000 0.000000 3.815681 -0.228054 -3.893801 2.570794 6.086984 8.351904 2.288677 -10.896662 -12.929117 0.000000 -0.000000 0.000000 -2.325450 2.151368 11.186821 2.000478 -2.272057 1.004086 2.263157 -1.628526 5.783310 4.971437 1.112083 -12.077473 2.013327 -3.604032 -1.440565 -19.843463 5.589926 4.868737 -50.424662 -0.144645 9.313835 -1.856131 -32.035176 19.933146 -0.932013 -4.932404 -5.739635 20.758776 -4.160963 2.263292 54.358620 -6.613781 11.259357 -7.009644 24.283556 5.320389 5.498453 1.361198 -6.363100 
1.073699 0.769538 0.982684 -84.863494 4.147921 92.101908 3.344840 -2.609246 -7.371699 -3.635018 -14.978889 13.426699 3.559683 11.879144 -21.795215 0.000000 -0.000000 0.000000 4.716459 0.972440 -7.067950 1.931354 4.982447 11.427203 2.712770 -12.242403 -14.456325 0.000000 -0.000000 0.000000 -2.374386 2.240398 11.637723 2.643853 -2.569437 2.362616 1.998340 -1.396305 3.878234 4.782882 0.925826 -9.637565 2.345787 -3.800574 -5.113204 -19.379000 6.056118 5.499488 -48.202985 1.824372 9.602237 -4.851532 -34.207508 21.433675 1.380673 -6.686628 -5.565925 20.313727 -5.058044 2.773853 53.395083 -8.350646 9.401008 -5.603531 24.609326 6.004865 4.410300 2.860229 -4.844526 
1.079304 0.772830 0.979399 -83.793982 4.138320 93.182326 3.293301 -3.978047 -11.950683 -4.482401 -14.741402 19.415885 3.447143 12.598774 -23.049348 0.000000 -0.000000 0.000000 4.968030 1.673597 -10.873458 2.098509 4.133548 15.984361 2.582486 -13.365417 -16.064268 0.000000 -0.000000 0.000000 -2.262106 2.154480 13.453433 2.786077 -2.537052 1.486359 1.974435 -1.590615 4.147697 4.543242 0.573556 -10.397725 2.429534 -4.092945 -6.384493 -18.571463 6.630805 5.987812 -47.490832 2.557604 9.613989 -6.439431 -35.873427 23.345347 1.708427 -7.076403 -6.353866 19.902154 -5.802726 2.948669 53.090526 -9.305540 8.881144 -5.504512 24.917693 6.294773 4.295465 3.206784 -4.886973 
1.086220 0.776396 0.971429 -82.853487 4.082426 94.364917 3.695184 -5.637937 -17.631505 -5.946115 -13.247773 26.942732 3.267826 13.097359 -25.023066 0.000000 -0.000000 0.000000 4.801792 2.530954 -16.070928 2.554305 2.656366 22.817979 2.754340 -14.187259 -18.704380 0.000000 -0.000000 0.000000 -2.029914 2.163496 15.662035 3.030269 -2.389318 0.497103 1.827346 -1.996654 4.404540 4.576215 0.488190 -11.842222 2.280091 -4.586258 -7.419645 -18.086523 7.125686 6.195115 -46.980257 3.131313 9.642084 -7.791409 -37.472093 24.503175 1.103501 -6.976614 -6.953282 19.643051 -6.582679 2.804045 52.971172 -10.000824 8.382390 -6.078320 25.363217 6.022394 5.088288 3.315401 -4.653021 
